0
SECTION
2
HEADER
9
$INSUNITS
70
4
0
ENDSEC
0
SECTION
2
TABLES
0
TABLE
2
LTYPE
0
LTYPE
72
65
70
64
2
CONTINUOUS
3
______
73
0
40
0
0
ENDTAB
0
TABLE
2
LAYER
0
ENDTAB
0
ENDSEC
0
SECTION
2
ENTITIES
0
LINE
8
0
10
-9
20
9
11
9
21
9
0
LINE
8
0
10
9
20
9
11
9
21
-9
0
LINE
8
0
10
9
20
-9
11
-9
21
-9
0
LINE
8
0
10
-9
20
-9
11
-9
21
9
0
LINE
8
0
10
-9
20
28
11
9
21
28
0
LINE
8
0
10
9
20
28
11
9
21
10
0
LINE
8
0
10
9
20
10
11
-9
21
10
0
LINE
8
0
10
-9
20
10
11
-9
21
28
0
LINE
8
0
10
-9
20
29
11
-9
21
66
0
LINE
8
0
10
-9
20
66
11
9
21
66
0
LINE
8
0
10
9
20
66
11
9
21
29
0
LINE
8
0
10
9
20
29
11
-9
21
29
0
LINE
8
0
10
-9
20
85
11
9
21
85
0
LINE
8
0
10
9
20
85
11
9
21
67
0
LINE
8
0
10
9
20
67
11
-9
21
67
0
LINE
8
0
10
-9
20
67
11
-9
21
85
0
LINE
8
0
10
-9
20
104
11
9
21
104
0
LINE
8
0
10
9
20
104
11
9
21
86
0
LINE
8
0
10
9
20
86
11
-9
21
86
0
LINE
8
0
10
-9
20
86
11
-9
21
104
0
LINE
8
0
10
-9
20
123
11
9
21
123
0
LINE
8
0
10
9
20
123
11
9
21
105
0
LINE
8
0
10
9
20
105
11
-9
21
105
0
LINE
8
0
10
-9
20
105
11
-9
21
123
0
LINE
8
0
10
9.875
20
9
11
37.625
21
9
0
LINE
8
0
10
37.625
20
9
11
37.625
21
-9
0
LINE
8
0
10
37.625
20
-9
11
9.875
21
-9
0
LINE
8
0
10
9.875
20
-9
11
9.875
21
9
0
LINE
8
0
10
10
20
28
11
28
21
28
0
LINE
8
0
10
28
20
28
11
28
21
10
0
LINE
8
0
10
28
20
10
11
10
21
10
0
LINE
8
0
10
10
20
10
11
10
21
28
0
LINE
8
0
10
10
20
47
11
28
21
47
0
LINE
8
0
10
28
20
47
11
28
21
29
0
LINE
8
0
10
28
20
29
11
10
21
29
0
LINE
8
0
10
10
20
29
11
10
21
47
0
LINE
8
0
10
10
20
66
11
28
21
66
0
LINE
8
0
10
28
20
66
11
28
21
48
0
LINE
8
0
10
28
20
48
11
10
21
48
0
LINE
8
0
10
10
20
48
11
10
21
66
0
LINE
8
0
10
10
20
85
11
28
21
85
0
LINE
8
0
10
28
20
85
11
28
21
67
0
LINE
8
0
10
28
20
67
11
10
21
67
0
LINE
8
0
10
10
20
67
11
10
21
85
0
LINE
8
0
10
10
20
104
11
28
21
104
0
LINE
8
0
10
28
20
104
11
28
21
86
0
LINE
8
0
10
28
20
86
11
10
21
86
0
LINE
8
0
10
10
20
86
11
10
21
104
0
LINE
8
0
10
10
20
123
11
28
21
123
0
LINE
8
0
10
28
20
123
11
28
21
105
0
LINE
8
0
10
28
20
105
11
10
21
105
0
LINE
8
0
10
10
20
105
11
10
21
123
0
LINE
8
0
10
38.375
20
9
11
66.125
21
9
0
LINE
8
0
10
66.125
20
9
11
66.125
21
-9
0
LINE
8
0
10
66.125
20
-9
11
38.375
21
-9
0
LINE
8
0
10
38.375
20
-9
11
38.375
21
9
0
LINE
8
0
10
29
20
28
11
47
21
28
0
LINE
8
0
10
47
20
28
11
47
21
10
0
LINE
8
0
10
47
20
10
11
29
21
10
0
LINE
8
0
10
29
20
10
11
29
21
28
0
LINE
8
0
10
29
20
47
11
47
21
47
0
LINE
8
0
10
47
20
47
11
47
21
29
0
LINE
8
0
10
47
20
29
11
29
21
29
0
LINE
8
0
10
29
20
29
11
29
21
47
0
LINE
8
0
10
29
20
66
11
47
21
66
0
LINE
8
0
10
47
20
66
11
47
21
48
0
LINE
8
0
10
47
20
48
11
29
21
48
0
LINE
8
0
10
29
20
48
11
29
21
66
0
LINE
8
0
10
29
20
85
11
47
21
85
0
LINE
8
0
10
47
20
85
11
47
21
67
0
LINE
8
0
10
47
20
67
11
29
21
67
0
LINE
8
0
10
29
20
67
11
29
21
85
0
LINE
8
0
10
29
20
104
11
47
21
104
0
LINE
8
0
10
47
20
104
11
47
21
86
0
LINE
8
0
10
47
20
86
11
29
21
86
0
LINE
8
0
10
29
20
86
11
29
21
104
0
LINE
8
0
10
29
20
123
11
47
21
123
0
LINE
8
0
10
47
20
123
11
47
21
105
0
LINE
8
0
10
47
20
105
11
29
21
105
0
LINE
8
0
10
29
20
105
11
29
21
123
0
LINE
8
0
10
48
20
28
11
66
21
28
0
LINE
8
0
10
66
20
28
11
66
21
10
0
LINE
8
0
10
66
20
10
11
48
21
10
0
LINE
8
0
10
48
20
10
11
48
21
28
0
LINE
8
0
10
48
20
47
11
66
21
47
0
LINE
8
0
10
66
20
47
11
66
21
29
0
LINE
8
0
10
66
20
29
11
48
21
29
0
LINE
8
0
10
48
20
29
11
48
21
47
0
LINE
8
0
10
48
20
66
11
66
21
66
0
LINE
8
0
10
66
20
66
11
66
21
48
0
LINE
8
0
10
66
20
48
11
48
21
48
0
LINE
8
0
10
48
20
48
11
48
21
66
0
LINE
8
0
10
48
20
85
11
66
21
85
0
LINE
8
0
10
66
20
85
11
66
21
67
0
LINE
8
0
10
66
20
67
11
48
21
67
0
LINE
8
0
10
48
20
67
11
48
21
85
0
LINE
8
0
10
48
20
104
11
66
21
104
0
LINE
8
0
10
66
20
104
11
66
21
86
0
LINE
8
0
10
66
20
86
11
48
21
86
0
LINE
8
0
10
48
20
86
11
48
21
104
0
LINE
8
0
10
48
20
123
11
66
21
123
0
LINE
8
0
10
66
20
123
11
66
21
105
0
LINE
8
0
10
66
20
105
11
48
21
105
0
LINE
8
0
10
48
20
105
11
48
21
123
0
LINE
8
0
10
67.0245
20
28
11
108.6495
21
28
0
LINE
8
0
10
108.6495
20
28
11
108.6495
21
10
0
LINE
8
0
10
108.6495
20
10
11
67.0245
21
10
0
LINE
8
0
10
67.0245
20
10
11
67.0245
21
28
0
LINE
8
0
10
67
20
47
11
85
21
47
0
LINE
8
0
10
85
20
47
11
85
21
29
0
LINE
8
0
10
85
20
29
11
67
21
29
0
LINE
8
0
10
67
20
29
11
67
21
47
0
LINE
8
0
10
67
20
66
11
85
21
66
0
LINE
8
0
10
85
20
66
11
85
21
48
0
LINE
8
0
10
85
20
48
11
67
21
48
0
LINE
8
0
10
67
20
48
11
67
21
66
0
LINE
8
0
10
67
20
85
11
85
21
85
0
LINE
8
0
10
85
20
85
11
85
21
67
0
LINE
8
0
10
85
20
67
11
67
21
67
0
LINE
8
0
10
67
20
67
11
67
21
85
0
LINE
8
0
10
67
20
104
11
85
21
104
0
LINE
8
0
10
85
20
104
11
85
21
86
0
LINE
8
0
10
85
20
86
11
67
21
86
0
LINE
8
0
10
67
20
86
11
67
21
104
0
LINE
8
0
10
67
20
123
11
85
21
123
0
LINE
8
0
10
85
20
123
11
85
21
105
0
LINE
8
0
10
85
20
105
11
67
21
105
0
LINE
8
0
10
67
20
105
11
67
21
123
0
LINE
8
0
10
86
20
47
11
104
21
47
0
LINE
8
0
10
104
20
47
11
104
21
29
0
LINE
8
0
10
104
20
29
11
86
21
29
0
LINE
8
0
10
86
20
29
11
86
21
47
0
LINE
8
0
10
86
20
66
11
104
21
66
0
LINE
8
0
10
104
20
66
11
104
21
48
0
LINE
8
0
10
104
20
48
11
86
21
48
0
LINE
8
0
10
86
20
48
11
86
21
66
0
LINE
8
0
10
86
20
85
11
104
21
85
0
LINE
8
0
10
104
20
85
11
104
21
67
0
LINE
8
0
10
104
20
67
11
86
21
67
0
LINE
8
0
10
86
20
67
11
86
21
85
0
LINE
8
0
10
86
20
104
11
104
21
104
0
LINE
8
0
10
104
20
104
11
104
21
86
0
LINE
8
0
10
104
20
86
11
86
21
86
0
LINE
8
0
10
86
20
86
11
86
21
104
0
LINE
8
0
10
86
20
123
11
104
21
123
0
LINE
8
0
10
104
20
123
11
104
21
105
0
LINE
8
0
10
104
20
105
11
86
21
105
0
LINE
8
0
10
86
20
105
11
86
21
123
0
LINE
8
0
10
105
20
29
11
105
21
66
0
LINE
8
0
10
105
20
66
11
123
21
66
0
LINE
8
0
10
123
20
66
11
123
21
29
0
LINE
8
0
10
123
20
29
11
105
21
29
0
LINE
8
0
10
105
20
67.065
11
105
21
94.815
0
LINE
8
0
10
105
20
94.815
11
123
21
94.815
0
LINE
8
0
10
123
20
94.815
11
123
21
67.065
0
LINE
8
0
10
123
20
67.065
11
105
21
67.065
0
LINE
8
0
10
105
20
95.94
11
105
21
122.94
0
LINE
8
0
10
105
20
122.94
11
123
21
122.94
0
LINE
8
0
10
123
20
122.94
11
123
21
95.94
0
LINE
8
0
10
123
20
95.94
11
105
21
95.94
0
LINE
8
0
10
124
20
47
11
142
21
47
0
LINE
8
0
10
142
20
47
11
142
21
29
0
LINE
8
0
10
142
20
29
11
124
21
29
0
LINE
8
0
10
124
20
29
11
124
21
47
0
LINE
8
0
10
124
20
66
11
142
21
66
0
LINE
8
0
10
142
20
66
11
142
21
48
0
LINE
8
0
10
142
20
48
11
124
21
48
0
LINE
8
0
10
124
20
48
11
124
21
66
0
LINE
8
0
10
124
20
85
11
142
21
85
0
LINE
8
0
10
142
20
85
11
142
21
67
0
LINE
8
0
10
142
20
67
11
124
21
67
0
LINE
8
0
10
124
20
67
11
124
21
85
0
LINE
8
0
10
124
20
104
11
142
21
104
0
LINE
8
0
10
142
20
104
11
142
21
86
0
LINE
8
0
10
142
20
86
11
124
21
86
0
LINE
8
0
10
124
20
86
11
124
21
104
0
LINE
8
0
10
124
20
123
11
142
21
123
0
LINE
8
0
10
142
20
123
11
142
21
105
0
LINE
8
0
10
142
20
105
11
124
21
105
0
LINE
8
0
10
124
20
105
11
124
21
123
0
LINE
8
0
10
109.9755
20
28
11
160.8505
21
28
0
LINE
8
0
10
160.8505
20
28
11
160.8505
21
10
0
LINE
8
0
10
160.8505
20
10
11
109.9755
21
10
0
LINE
8
0
10
109.9755
20
10
11
109.9755
21
28
0
LINE
8
0
10
143
20
47
11
161
21
47
0
LINE
8
0
10
161
20
47
11
161
21
29
0
LINE
8
0
10
161
20
29
11
143
21
29
0
LINE
8
0
10
143
20
29
11
143
21
47
0
LINE
8
0
10
143
20
66
11
161
21
66
0
LINE
8
0
10
161
20
66
11
161
21
48
0
LINE
8
0
10
161
20
48
11
143
21
48
0
LINE
8
0
10
143
20
48
11
143
21
66
0
LINE
8
0
10
143
20
85
11
161
21
85
0
LINE
8
0
10
161
20
85
11
161
21
67
0
LINE
8
0
10
161
20
67
11
143
21
67
0
LINE
8
0
10
143
20
67
11
143
21
85
0
LINE
8
0
10
143
20
104
11
161
21
104
0
LINE
8
0
10
161
20
104
11
161
21
86
0
LINE
8
0
10
161
20
86
11
143
21
86
0
LINE
8
0
10
143
20
86
11
143
21
104
0
LINE
8
0
10
143
20
123
11
161
21
123
0
LINE
8
0
10
161
20
123
11
161
21
105
0
LINE
8
0
10
161
20
105
11
143
21
105
0
LINE
8
0
10
143
20
105
11
143
21
123
0
LINE
8
0
10
162
20
9
11
180
21
9
0
LINE
8
0
10
180
20
9
11
180
21
-9
0
LINE
8
0
10
180
20
-9
11
162
21
-9
0
LINE
8
0
10
162
20
-9
11
162
21
9
0
LINE
8
0
10
162
20
28
11
180
21
28
0
LINE
8
0
10
180
20
28
11
180
21
10
0
LINE
8
0
10
180
20
10
11
162
21
10
0
LINE
8
0
10
162
20
10
11
162
21
28
0
LINE
8
0
10
162
20
47
11
180
21
47
0
LINE
8
0
10
180
20
47
11
180
21
29
0
LINE
8
0
10
180
20
29
11
162
21
29
0
LINE
8
0
10
162
20
29
11
162
21
47
0
LINE
8
0
10
162
20
66
11
180
21
66
0
LINE
8
0
10
180
20
66
11
180
21
48
0
LINE
8
0
10
180
20
48
11
162
21
48
0
LINE
8
0
10
162
20
48
11
162
21
66
0
LINE
8
0
10
162
20
85
11
180
21
85
0
LINE
8
0
10
180
20
85
11
180
21
67
0
LINE
8
0
10
180
20
67
11
162
21
67
0
LINE
8
0
10
162
20
67
11
162
21
85
0
LINE
8
0
10
162
20
104
11
180
21
104
0
LINE
8
0
10
180
20
104
11
180
21
86
0
LINE
8
0
10
180
20
86
11
162
21
86
0
LINE
8
0
10
162
20
86
11
162
21
104
0
LINE
8
0
10
162
20
123
11
180
21
123
0
LINE
8
0
10
180
20
123
11
180
21
105
0
LINE
8
0
10
180
20
105
11
162
21
105
0
LINE
8
0
10
162
20
105
11
162
21
123
0
LINE
8
0
10
181
20
9
11
199
21
9
0
LINE
8
0
10
199
20
9
11
199
21
-9
0
LINE
8
0
10
199
20
-9
11
181
21
-9
0
LINE
8
0
10
181
20
-9
11
181
21
9
0
LINE
8
0
10
181
20
28
11
199
21
28
0
LINE
8
0
10
199
20
28
11
199
21
10
0
LINE
8
0
10
199
20
10
11
181
21
10
0
LINE
8
0
10
181
20
10
11
181
21
28
0
LINE
8
0
10
181
20
47
11
199
21
47
0
LINE
8
0
10
199
20
47
11
199
21
29
0
LINE
8
0
10
199
20
29
11
181
21
29
0
LINE
8
0
10
181
20
29
11
181
21
47
0
LINE
8
0
10
181
20
66
11
199
21
66
0
LINE
8
0
10
199
20
66
11
199
21
48
0
LINE
8
0
10
199
20
48
11
181
21
48
0
LINE
8
0
10
181
20
48
11
181
21
66
0
LINE
8
0
10
181
20
85
11
199
21
85
0
LINE
8
0
10
199
20
85
11
199
21
67
0
LINE
8
0
10
199
20
67
11
181
21
67
0
LINE
8
0
10
181
20
67
11
181
21
85
0
LINE
8
0
10
181
20
104
11
199
21
104
0
LINE
8
0
10
199
20
104
11
199
21
86
0
LINE
8
0
10
199
20
86
11
181
21
86
0
LINE
8
0
10
181
20
86
11
181
21
104
0
LINE
8
0
10
181
20
123
11
199
21
123
0
LINE
8
0
10
199
20
123
11
199
21
105
0
LINE
8
0
10
199
20
105
11
181
21
105
0
LINE
8
0
10
181
20
105
11
181
21
123
0
LINE
8
0
10
200
20
9
11
218
21
9
0
LINE
8
0
10
218
20
9
11
218
21
-9
0
LINE
8
0
10
218
20
-9
11
200
21
-9
0
LINE
8
0
10
200
20
-9
11
200
21
9
0
LINE
8
0
10
200
20
28
11
218
21
28
0
LINE
8
0
10
218
20
28
11
218
21
10
0
LINE
8
0
10
218
20
10
11
200
21
10
0
LINE
8
0
10
200
20
10
11
200
21
28
0
LINE
8
0
10
200
20
47
11
218
21
47
0
LINE
8
0
10
218
20
47
11
218
21
29
0
LINE
8
0
10
218
20
29
11
200
21
29
0
LINE
8
0
10
200
20
29
11
200
21
47
0
LINE
8
0
10
200
20
66
11
218
21
66
0
LINE
8
0
10
218
20
66
11
218
21
48
0
LINE
8
0
10
218
20
48
11
200
21
48
0
LINE
8
0
10
200
20
48
11
200
21
66
0
LINE
8
0
10
200
20
85
11
218
21
85
0
LINE
8
0
10
218
20
85
11
218
21
67
0
LINE
8
0
10
218
20
67
11
200
21
67
0
LINE
8
0
10
200
20
67
11
200
21
85
0
LINE
8
0
10
200
20
104
11
218
21
104
0
LINE
8
0
10
218
20
104
11
218
21
86
0
LINE
8
0
10
218
20
86
11
200
21
86
0
LINE
8
0
10
200
20
86
11
200
21
104
0
LINE
8
0
10
200
20
123
11
218
21
123
0
LINE
8
0
10
218
20
123
11
218
21
105
0
LINE
8
0
10
218
20
105
11
200
21
105
0
LINE
8
0
10
200
20
105
11
200
21
123
0
LINE
8
0
10
219
20
9
11
237
21
9
0
LINE
8
0
10
237
20
9
11
237
21
-9
0
LINE
8
0
10
237
20
-9
11
219
21
-9
0
LINE
8
0
10
219
20
-9
11
219
21
9
0
LINE
8
0
10
219
20
28
11
237
21
28
0
LINE
8
0
10
237
20
28
11
237
21
10
0
LINE
8
0
10
237
20
10
11
219
21
10
0
LINE
8
0
10
219
20
10
11
219
21
28
0
LINE
8
0
10
219
20
47
11
237
21
47
0
LINE
8
0
10
237
20
47
11
237
21
29
0
LINE
8
0
10
237
20
29
11
219
21
29
0
LINE
8
0
10
219
20
29
11
219
21
47
0
LINE
8
0
10
219
20
66
11
237
21
66
0
LINE
8
0
10
237
20
66
11
237
21
48
0
LINE
8
0
10
237
20
48
11
219
21
48
0
LINE
8
0
10
219
20
48
11
219
21
66
0
LINE
8
0
10
219
20
85
11
237
21
85
0
LINE
8
0
10
237
20
85
11
237
21
67
0
LINE
8
0
10
237
20
67
11
219
21
67
0
LINE
8
0
10
219
20
67
11
219
21
85
0
LINE
8
0
10
219
20
104
11
237
21
104
0
LINE
8
0
10
237
20
104
11
237
21
86
0
LINE
8
0
10
237
20
86
11
219
21
86
0
LINE
8
0
10
219
20
86
11
219
21
104
0
LINE
8
0
10
219
20
123
11
237
21
123
0
LINE
8
0
10
237
20
123
11
237
21
105
0
LINE
8
0
10
237
20
105
11
219
21
105
0
LINE
8
0
10
219
20
105
11
219
21
123
0
LINE
8
0
10
238
20
-9
11
238
21
28
0
LINE
8
0
10
238
20
28
11
256
21
28
0
LINE
8
0
10
256
20
28
11
256
21
-9
0
LINE
8
0
10
256
20
-9
11
238
21
-9
0
LINE
8
0
10
238
20
29
11
238
21
66
0
LINE
8
0
10
238
20
66
11
256
21
66
0
LINE
8
0
10
256
20
66
11
256
21
29
0
LINE
8
0
10
256
20
29
11
238
21
29
0
LINE
8
0
10
238
20
85
11
256
21
85
0
LINE
8
0
10
256
20
85
11
256
21
67
0
LINE
8
0
10
256
20
67
11
238
21
67
0
LINE
8
0
10
238
20
67
11
238
21
85
0
LINE
8
0
10
238
20
104
11
256
21
104
0
LINE
8
0
10
256
20
104
11
256
21
86
0
LINE
8
0
10
256
20
86
11
238
21
86
0
LINE
8
0
10
238
20
86
11
238
21
104
0
LINE
8
0
10
238
20
123
11
256
21
123
0
LINE
8
0
10
256
20
123
11
256
21
105
0
LINE
8
0
10
256
20
105
11
238
21
105
0
LINE
8
0
10
238
20
105
11
238
21
123
0
LINE
8
0
10
257
20
9
11
275
21
9
0
LINE
8
0
10
275
20
9
11
275
21
-9
0
LINE
8
0
10
275
20
-9
11
257
21
-9
0
LINE
8
0
10
257
20
-9
11
257
21
9
0
LINE
8
0
10
257
20
28
11
275
21
28
0
LINE
8
0
10
275
20
28
11
275
21
10
0
LINE
8
0
10
275
20
10
11
257
21
10
0
LINE
8
0
10
257
20
10
11
257
21
28
0
LINE
8
0
10
257
20
47
11
275
21
47
0
LINE
8
0
10
275
20
47
11
275
21
29
0
LINE
8
0
10
275
20
29
11
257
21
29
0
LINE
8
0
10
257
20
29
11
257
21
47
0
LINE
8
0
10
257
20
66
11
275
21
66
0
LINE
8
0
10
275
20
66
11
275
21
48
0
LINE
8
0
10
275
20
48
11
257
21
48
0
LINE
8
0
10
257
20
48
11
257
21
66
0
LINE
8
0
10
257
20
85
11
275
21
85
0
LINE
8
0
10
275
20
85
11
275
21
67
0
LINE
8
0
10
275
20
67
11
257
21
67
0
LINE
8
0
10
257
20
67
11
257
21
85
0
LINE
8
0
10
257
20
104
11
275
21
104
0
LINE
8
0
10
275
20
104
11
275
21
86
0
LINE
8
0
10
275
20
86
11
257
21
86
0
LINE
8
0
10
257
20
86
11
257
21
104
0
LINE
8
0
10
257
20
123
11
275
21
123
0
LINE
8
0
10
275
20
123
11
275
21
105
0
LINE
8
0
10
275
20
105
11
257
21
105
0
LINE
8
0
10
257
20
105
11
257
21
123
0
ENDSEC
0
EOF